<svg xmlns="http://www.w3.org/2000/svg" width="731" height="800"><path d="M149.13 159.02C267.289 52.244 444.12 50.611 563.913 148.081l-94.952 3.592a22.048 22.048 0 00.817 44.081h.822l145.778-5.387a22.007 22.007 0 0021.246-22.041v-2.612l-5.393-144a22.078 22.078 0 00-44.131 1.632l3.431 90.286c-59.324-48.49-132.377-76.572-210.5-80.49A362.642 362.642 0 0010.379 480.816a21.961 21.961 0 0021.409 16.816 19.169 19.169 0 005.23-.652A22.071 22.071 0 0053.2 470.367a318.344 318.344 0 0195.93-311.347zm572.492 160.653a22.038 22.038 0 00-42.822 10.449 318.807 318.807 0 01-513.33 320.164l96.1-8.653a22.054 22.054 0 10-4.085-43.919L112.2 610.776a22.022 22.022 0 00-19.938 24l13.074 145.143A22.016 22.016 0 00127.231 800a7.976 7.976 0 001.961-.163 22.022 22.022 0 0019.938-24l-7.844-88.327c59.324 48 132.05 75.919 209.679 79.837 6.211.327 12.42.49 18.468.49 90.049 0 175.685-32.98 243.019-93.715a362.3 362.3 0 00109.17-354.449z" fill-rule="evenodd"/></svg>