<svg xmlns="http://www.w3.org/2000/svg" width="461" height="512"><path d="M378.8 395.844c-13.617-5.956-29.069-12.689-46.646-20.736l-.795-.358-.623.606a164.217 164.217 0 01-19.379 16.06l-1.793 1.263 1.989.93c22.076 10.257 41.2 18.662 57.378 25.737 60.023 26.18 67.605 31.292 67.605 45.559 0 9.8-9.664 21.641-21.651 21.641H48.108c-11.986 0-21.65-11.844-21.65-21.641 0-14.268 7.589-19.379 67.605-45.559 16.178-7.074 35.309-15.479 57.378-25.737l1.988-.93-1.792-1.263a165.74 165.74 0 01-19.38-16.06l-.623-.606-.794.358c-17.587 8.038-33.031 14.78-46.646 20.736C23.649 422.263 1 432.154 1 464.913 1 489.557 23.453 512 48.108 512h366.784C439.547 512 462 489.557 462 464.913c0-32.759-22.649-42.65-83.2-69.069zM410.778 153.6h-25.611a153.667 153.667 0 00-307.333 0H52.223a25.6 25.6 0 00-25.611 25.6V256a25.6 25.6 0 0025.611 25.6h25.611a25.33 25.33 0 0018.875-8.627 40.167 40.167 0 002.39 3.285c17.732 70.153 70.371 121.174 132.4 121.174 63.533 0 117.1-53.572 133.519-126.353 4.67 6.229 11.764 10.522 20.148 10.522h25.611A25.6 25.6 0 00436.389 256v-76.8a25.6 25.6 0 00-25.611-25.6zM77.834 256H52.223v-76.8h25.611V256zM231.5 371.985c-41.43 0-77.644-29.21-97.416-72.559C164.433 312.627 204.215 320 231.5 320a12.8 12.8 0 100-25.6c-45.024 0-93.036-17.988-109.154-30.822a189.1 189.1 0 01-4.192-39.262c0-81.425 50.855-147.669 113.346-147.669s113.346 66.244 113.346 147.669S293.991 371.985 231.5 371.985zm127.748-215.33C338.076 94.729 288.792 51.2 231.5 51.2S124.924 94.729 103.752 156.655c-.026-1.041-.307-2.014-.307-3.055 0-70.579 57.446-128 128.055-128s128.055 57.421 128.055 128c0 1.041-.282 2.014-.307 3.055zM410.778 256h-25.611v-76.8h25.611V256z" fill-rule="evenodd"/></svg>